<mxfile host="app.diagrams.net" modified="2021-05-25T13:03:59.475Z" agent="5.0 (Windows NT 10.0; Win64; x64) AppleWebKit/537.36 (KHTML, like Gecko) Chrome/90.0.4430.212 Safari/537.36" etag="aWcCpAWZyHQmPmx_DKN1" version="14.6.10" type="github">
  <diagram id="9fCClL9zK_jhLIIki-N6" name="第 1 页">
    <mxGraphModel dx="1038" dy="585" grid="1" gridSize="10" guides="1" tooltips="1" connect="1" arrows="1" fold="1" page="1" pageScale="1" pageWidth="827" pageHeight="1169" math="0" shadow="0">
      <root>
        <mxCell id="0" />
        <mxCell id="1" parent="0" />
        <mxCell id="nw3spOytnLbYJBaP-aCj-23" value="&lt;font style=&quot;font-size: 18px&quot;&gt;a&lt;/font&gt;" style="ellipse;whiteSpace=wrap;html=1;aspect=fixed;fillColor=#FFFFFF;" vertex="1" parent="1">
          <mxGeometry x="308" y="1010" width="60" height="60" as="geometry" />
        </mxCell>
        <mxCell id="nw3spOytnLbYJBaP-aCj-11" style="rounded=0;orthogonalLoop=1;jettySize=auto;html=1;entryX=0.667;entryY=0.146;entryDx=0;entryDy=0;endArrow=none;endFill=0;entryPerimeter=0;" edge="1" parent="1" source="nw3spOytnLbYJBaP-aCj-1" target="nw3spOytnLbYJBaP-aCj-2">
          <mxGeometry relative="1" as="geometry" />
        </mxCell>
        <mxCell id="nw3spOytnLbYJBaP-aCj-13" style="edgeStyle=none;rounded=0;orthogonalLoop=1;jettySize=auto;html=1;entryX=0.5;entryY=0;entryDx=0;entryDy=0;endArrow=none;endFill=0;" edge="1" parent="1" source="nw3spOytnLbYJBaP-aCj-1" target="nw3spOytnLbYJBaP-aCj-8">
          <mxGeometry relative="1" as="geometry" />
        </mxCell>
        <mxCell id="nw3spOytnLbYJBaP-aCj-1" value="&lt;font style=&quot;font-size: 18px&quot;&gt;a&lt;/font&gt;" style="ellipse;whiteSpace=wrap;html=1;aspect=fixed;" vertex="1" parent="1">
          <mxGeometry x="320" y="100" width="60" height="60" as="geometry" />
        </mxCell>
        <mxCell id="nw3spOytnLbYJBaP-aCj-12" style="edgeStyle=none;rounded=0;orthogonalLoop=1;jettySize=auto;html=1;entryX=0.5;entryY=0;entryDx=0;entryDy=0;endArrow=none;endFill=0;" edge="1" parent="1" source="nw3spOytnLbYJBaP-aCj-2" target="nw3spOytnLbYJBaP-aCj-3">
          <mxGeometry relative="1" as="geometry" />
        </mxCell>
        <mxCell id="nw3spOytnLbYJBaP-aCj-14" style="edgeStyle=none;rounded=0;orthogonalLoop=1;jettySize=auto;html=1;entryX=0.5;entryY=0;entryDx=0;entryDy=0;endArrow=none;endFill=0;" edge="1" parent="1" source="nw3spOytnLbYJBaP-aCj-2" target="nw3spOytnLbYJBaP-aCj-5">
          <mxGeometry relative="1" as="geometry" />
        </mxCell>
        <mxCell id="nw3spOytnLbYJBaP-aCj-2" value="&lt;font style=&quot;font-size: 18px&quot;&gt;b&lt;/font&gt;" style="ellipse;whiteSpace=wrap;html=1;aspect=fixed;fillColor=#CDA2BE;" vertex="1" parent="1">
          <mxGeometry x="240" y="180" width="60" height="60" as="geometry" />
        </mxCell>
        <mxCell id="nw3spOytnLbYJBaP-aCj-3" value="&lt;font style=&quot;font-size: 18px&quot;&gt;d&lt;/font&gt;" style="ellipse;whiteSpace=wrap;html=1;aspect=fixed;" vertex="1" parent="1">
          <mxGeometry x="170" y="280" width="60" height="60" as="geometry" />
        </mxCell>
        <mxCell id="nw3spOytnLbYJBaP-aCj-15" style="edgeStyle=none;rounded=0;orthogonalLoop=1;jettySize=auto;html=1;endArrow=none;endFill=0;entryX=0.5;entryY=0;entryDx=0;entryDy=0;" edge="1" parent="1" source="nw3spOytnLbYJBaP-aCj-5" target="nw3spOytnLbYJBaP-aCj-6">
          <mxGeometry relative="1" as="geometry">
            <mxPoint x="320" y="380" as="targetPoint" />
          </mxGeometry>
        </mxCell>
        <mxCell id="nw3spOytnLbYJBaP-aCj-16" style="edgeStyle=none;rounded=0;orthogonalLoop=1;jettySize=auto;html=1;entryX=0.5;entryY=0;entryDx=0;entryDy=0;endArrow=none;endFill=0;" edge="1" parent="1" source="nw3spOytnLbYJBaP-aCj-5" target="nw3spOytnLbYJBaP-aCj-7">
          <mxGeometry relative="1" as="geometry" />
        </mxCell>
        <mxCell id="nw3spOytnLbYJBaP-aCj-5" value="&lt;font style=&quot;font-size: 18px&quot;&gt;e&lt;/font&gt;" style="ellipse;whiteSpace=wrap;html=1;aspect=fixed;" vertex="1" parent="1">
          <mxGeometry x="300" y="280" width="60" height="60" as="geometry" />
        </mxCell>
        <mxCell id="nw3spOytnLbYJBaP-aCj-6" value="&lt;font style=&quot;font-size: 18px&quot;&gt;h&lt;/font&gt;" style="ellipse;whiteSpace=wrap;html=1;aspect=fixed;fillColor=#7EA6E0;" vertex="1" parent="1">
          <mxGeometry x="250" y="390" width="60" height="60" as="geometry" />
        </mxCell>
        <mxCell id="nw3spOytnLbYJBaP-aCj-7" value="&lt;font style=&quot;font-size: 18px&quot;&gt;i&lt;/font&gt;" style="ellipse;whiteSpace=wrap;html=1;aspect=fixed;" vertex="1" parent="1">
          <mxGeometry x="370" y="390" width="60" height="60" as="geometry" />
        </mxCell>
        <mxCell id="nw3spOytnLbYJBaP-aCj-17" style="edgeStyle=none;rounded=0;orthogonalLoop=1;jettySize=auto;html=1;entryX=0.5;entryY=0;entryDx=0;entryDy=0;endArrow=none;endFill=0;" edge="1" parent="1" source="nw3spOytnLbYJBaP-aCj-8" target="nw3spOytnLbYJBaP-aCj-9">
          <mxGeometry relative="1" as="geometry" />
        </mxCell>
        <mxCell id="nw3spOytnLbYJBaP-aCj-18" style="edgeStyle=none;rounded=0;orthogonalLoop=1;jettySize=auto;html=1;entryX=0.5;entryY=0;entryDx=0;entryDy=0;endArrow=none;endFill=0;" edge="1" parent="1" source="nw3spOytnLbYJBaP-aCj-8" target="nw3spOytnLbYJBaP-aCj-10">
          <mxGeometry relative="1" as="geometry" />
        </mxCell>
        <mxCell id="nw3spOytnLbYJBaP-aCj-8" value="&lt;font style=&quot;font-size: 18px&quot;&gt;c&lt;/font&gt;" style="ellipse;whiteSpace=wrap;html=1;aspect=fixed;" vertex="1" parent="1">
          <mxGeometry x="414" y="180" width="60" height="60" as="geometry" />
        </mxCell>
        <mxCell id="nw3spOytnLbYJBaP-aCj-9" value="&lt;font style=&quot;font-size: 18px&quot;&gt;f&lt;/font&gt;" style="ellipse;whiteSpace=wrap;html=1;aspect=fixed;" vertex="1" parent="1">
          <mxGeometry x="370" y="280" width="60" height="60" as="geometry" />
        </mxCell>
        <mxCell id="nw3spOytnLbYJBaP-aCj-10" value="&lt;font style=&quot;font-size: 18px&quot;&gt;g&lt;/font&gt;" style="ellipse;whiteSpace=wrap;html=1;aspect=fixed;" vertex="1" parent="1">
          <mxGeometry x="474" y="280" width="60" height="60" as="geometry" />
        </mxCell>
        <mxCell id="nw3spOytnLbYJBaP-aCj-20" value="&lt;h1&gt;第一种情况：&lt;/h1&gt;&lt;div&gt;当前节点的右子树不为空，那么它的下一个节点就是右子树的最左节点，比如节点b的下一个节点就是h&lt;/div&gt;" style="text;html=1;strokeColor=none;fillColor=none;spacing=5;spacingTop=-20;whiteSpace=wrap;overflow=hidden;rounded=0;" vertex="1" parent="1">
          <mxGeometry x="30" y="20" width="190" height="120" as="geometry" />
        </mxCell>
        <mxCell id="nw3spOytnLbYJBaP-aCj-21" style="rounded=0;orthogonalLoop=1;jettySize=auto;html=1;entryX=0.667;entryY=0.146;entryDx=0;entryDy=0;endArrow=none;endFill=0;entryPerimeter=0;" edge="1" source="nw3spOytnLbYJBaP-aCj-23" target="nw3spOytnLbYJBaP-aCj-26" parent="1">
          <mxGeometry relative="1" as="geometry" />
        </mxCell>
        <mxCell id="nw3spOytnLbYJBaP-aCj-22" style="edgeStyle=none;rounded=0;orthogonalLoop=1;jettySize=auto;html=1;entryX=0.5;entryY=0;entryDx=0;entryDy=0;endArrow=none;endFill=0;" edge="1" source="nw3spOytnLbYJBaP-aCj-23" target="nw3spOytnLbYJBaP-aCj-35" parent="1">
          <mxGeometry relative="1" as="geometry" />
        </mxCell>
        <mxCell id="nw3spOytnLbYJBaP-aCj-24" style="edgeStyle=none;rounded=0;orthogonalLoop=1;jettySize=auto;html=1;entryX=0.5;entryY=0;entryDx=0;entryDy=0;endArrow=none;endFill=0;" edge="1" source="nw3spOytnLbYJBaP-aCj-26" target="nw3spOytnLbYJBaP-aCj-27" parent="1">
          <mxGeometry relative="1" as="geometry" />
        </mxCell>
        <mxCell id="nw3spOytnLbYJBaP-aCj-25" style="edgeStyle=none;rounded=0;orthogonalLoop=1;jettySize=auto;html=1;entryX=0.5;entryY=0;entryDx=0;entryDy=0;endArrow=none;endFill=0;" edge="1" source="nw3spOytnLbYJBaP-aCj-26" target="nw3spOytnLbYJBaP-aCj-30" parent="1">
          <mxGeometry relative="1" as="geometry" />
        </mxCell>
        <mxCell id="nw3spOytnLbYJBaP-aCj-26" value="&lt;font style=&quot;font-size: 18px&quot;&gt;b&lt;/font&gt;" style="ellipse;whiteSpace=wrap;html=1;aspect=fixed;fillColor=#7EA6E0;" vertex="1" parent="1">
          <mxGeometry x="228" y="1090" width="60" height="60" as="geometry" />
        </mxCell>
        <mxCell id="nw3spOytnLbYJBaP-aCj-27" value="&lt;font style=&quot;font-size: 18px&quot;&gt;d&lt;/font&gt;" style="ellipse;whiteSpace=wrap;html=1;aspect=fixed;fillColor=#CDA2BE;" vertex="1" parent="1">
          <mxGeometry x="158" y="1190" width="60" height="60" as="geometry" />
        </mxCell>
        <mxCell id="nw3spOytnLbYJBaP-aCj-28" style="edgeStyle=none;rounded=0;orthogonalLoop=1;jettySize=auto;html=1;endArrow=none;endFill=0;entryX=0.5;entryY=0;entryDx=0;entryDy=0;" edge="1" source="nw3spOytnLbYJBaP-aCj-30" target="nw3spOytnLbYJBaP-aCj-31" parent="1">
          <mxGeometry relative="1" as="geometry">
            <mxPoint x="308" y="1290" as="targetPoint" />
          </mxGeometry>
        </mxCell>
        <mxCell id="nw3spOytnLbYJBaP-aCj-29" style="edgeStyle=none;rounded=0;orthogonalLoop=1;jettySize=auto;html=1;entryX=0.5;entryY=0;entryDx=0;entryDy=0;endArrow=none;endFill=0;" edge="1" source="nw3spOytnLbYJBaP-aCj-30" target="nw3spOytnLbYJBaP-aCj-32" parent="1">
          <mxGeometry relative="1" as="geometry" />
        </mxCell>
        <mxCell id="nw3spOytnLbYJBaP-aCj-30" value="&lt;font style=&quot;font-size: 18px&quot;&gt;e&lt;/font&gt;" style="ellipse;whiteSpace=wrap;html=1;aspect=fixed;" vertex="1" parent="1">
          <mxGeometry x="288" y="1190" width="60" height="60" as="geometry" />
        </mxCell>
        <mxCell id="nw3spOytnLbYJBaP-aCj-31" value="&lt;font style=&quot;font-size: 18px&quot;&gt;h&lt;/font&gt;" style="ellipse;whiteSpace=wrap;html=1;aspect=fixed;fillColor=#FFFFFF;" vertex="1" parent="1">
          <mxGeometry x="238" y="1300" width="60" height="60" as="geometry" />
        </mxCell>
        <mxCell id="nw3spOytnLbYJBaP-aCj-32" value="&lt;font style=&quot;font-size: 18px&quot;&gt;i&lt;/font&gt;" style="ellipse;whiteSpace=wrap;html=1;aspect=fixed;fillColor=#FFFFFF;" vertex="1" parent="1">
          <mxGeometry x="358" y="1300" width="60" height="60" as="geometry" />
        </mxCell>
        <mxCell id="nw3spOytnLbYJBaP-aCj-33" style="edgeStyle=none;rounded=0;orthogonalLoop=1;jettySize=auto;html=1;entryX=0.5;entryY=0;entryDx=0;entryDy=0;endArrow=none;endFill=0;" edge="1" source="nw3spOytnLbYJBaP-aCj-35" target="nw3spOytnLbYJBaP-aCj-36" parent="1">
          <mxGeometry relative="1" as="geometry" />
        </mxCell>
        <mxCell id="nw3spOytnLbYJBaP-aCj-34" style="edgeStyle=none;rounded=0;orthogonalLoop=1;jettySize=auto;html=1;entryX=0.5;entryY=0;entryDx=0;entryDy=0;endArrow=none;endFill=0;" edge="1" source="nw3spOytnLbYJBaP-aCj-35" target="nw3spOytnLbYJBaP-aCj-37" parent="1">
          <mxGeometry relative="1" as="geometry" />
        </mxCell>
        <mxCell id="nw3spOytnLbYJBaP-aCj-35" value="&lt;font style=&quot;font-size: 18px&quot;&gt;c&lt;/font&gt;" style="ellipse;whiteSpace=wrap;html=1;aspect=fixed;" vertex="1" parent="1">
          <mxGeometry x="402" y="1090" width="60" height="60" as="geometry" />
        </mxCell>
        <mxCell id="nw3spOytnLbYJBaP-aCj-36" value="&lt;font style=&quot;font-size: 18px&quot;&gt;f&lt;/font&gt;" style="ellipse;whiteSpace=wrap;html=1;aspect=fixed;" vertex="1" parent="1">
          <mxGeometry x="358" y="1190" width="60" height="60" as="geometry" />
        </mxCell>
        <mxCell id="nw3spOytnLbYJBaP-aCj-37" value="&lt;font style=&quot;font-size: 18px&quot;&gt;g&lt;/font&gt;" style="ellipse;whiteSpace=wrap;html=1;aspect=fixed;" vertex="1" parent="1">
          <mxGeometry x="462" y="1190" width="60" height="60" as="geometry" />
        </mxCell>
        <mxCell id="nw3spOytnLbYJBaP-aCj-38" value="&lt;h1&gt;第三种情况：&lt;/h1&gt;&lt;div&gt;当前节点没有右节点，并且也不是它父节点的右子节点，那么它的下一个节点就是它的父节点，比如节点d的下一个节点就是b&lt;/div&gt;" style="text;html=1;strokeColor=none;fillColor=none;spacing=5;spacingTop=-20;whiteSpace=wrap;overflow=hidden;rounded=0;" vertex="1" parent="1">
          <mxGeometry x="18" y="930" width="182" height="110" as="geometry" />
        </mxCell>
        <mxCell id="nw3spOytnLbYJBaP-aCj-39" style="rounded=0;orthogonalLoop=1;jettySize=auto;html=1;entryX=0.667;entryY=0.146;entryDx=0;entryDy=0;endArrow=none;endFill=0;entryPerimeter=0;" edge="1" source="nw3spOytnLbYJBaP-aCj-41" target="nw3spOytnLbYJBaP-aCj-44" parent="1">
          <mxGeometry relative="1" as="geometry" />
        </mxCell>
        <mxCell id="nw3spOytnLbYJBaP-aCj-40" style="edgeStyle=none;rounded=0;orthogonalLoop=1;jettySize=auto;html=1;entryX=0.5;entryY=0;entryDx=0;entryDy=0;endArrow=none;endFill=0;" edge="1" source="nw3spOytnLbYJBaP-aCj-41" target="nw3spOytnLbYJBaP-aCj-53" parent="1">
          <mxGeometry relative="1" as="geometry" />
        </mxCell>
        <mxCell id="nw3spOytnLbYJBaP-aCj-41" value="&lt;font style=&quot;font-size: 18px&quot;&gt;a&lt;/font&gt;" style="ellipse;whiteSpace=wrap;html=1;aspect=fixed;fillColor=#7EA6E0;" vertex="1" parent="1">
          <mxGeometry x="296" y="560" width="60" height="60" as="geometry" />
        </mxCell>
        <mxCell id="nw3spOytnLbYJBaP-aCj-42" style="edgeStyle=none;rounded=0;orthogonalLoop=1;jettySize=auto;html=1;entryX=0.5;entryY=0;entryDx=0;entryDy=0;endArrow=none;endFill=0;" edge="1" source="nw3spOytnLbYJBaP-aCj-44" target="nw3spOytnLbYJBaP-aCj-45" parent="1">
          <mxGeometry relative="1" as="geometry" />
        </mxCell>
        <mxCell id="nw3spOytnLbYJBaP-aCj-43" style="edgeStyle=none;rounded=0;orthogonalLoop=1;jettySize=auto;html=1;entryX=0.5;entryY=0;entryDx=0;entryDy=0;endArrow=none;endFill=0;" edge="1" source="nw3spOytnLbYJBaP-aCj-44" target="nw3spOytnLbYJBaP-aCj-48" parent="1">
          <mxGeometry relative="1" as="geometry" />
        </mxCell>
        <mxCell id="nw3spOytnLbYJBaP-aCj-44" value="&lt;font style=&quot;font-size: 18px&quot;&gt;b&lt;/font&gt;" style="ellipse;whiteSpace=wrap;html=1;aspect=fixed;fillColor=#FFFFFF;" vertex="1" parent="1">
          <mxGeometry x="216" y="640" width="60" height="60" as="geometry" />
        </mxCell>
        <mxCell id="nw3spOytnLbYJBaP-aCj-45" value="&lt;font style=&quot;font-size: 18px&quot;&gt;d&lt;/font&gt;" style="ellipse;whiteSpace=wrap;html=1;aspect=fixed;" vertex="1" parent="1">
          <mxGeometry x="146" y="740" width="60" height="60" as="geometry" />
        </mxCell>
        <mxCell id="nw3spOytnLbYJBaP-aCj-46" style="edgeStyle=none;rounded=0;orthogonalLoop=1;jettySize=auto;html=1;endArrow=none;endFill=0;entryX=0.5;entryY=0;entryDx=0;entryDy=0;" edge="1" source="nw3spOytnLbYJBaP-aCj-48" target="nw3spOytnLbYJBaP-aCj-49" parent="1">
          <mxGeometry relative="1" as="geometry">
            <mxPoint x="296" y="840" as="targetPoint" />
          </mxGeometry>
        </mxCell>
        <mxCell id="nw3spOytnLbYJBaP-aCj-47" style="edgeStyle=none;rounded=0;orthogonalLoop=1;jettySize=auto;html=1;entryX=0.5;entryY=0;entryDx=0;entryDy=0;endArrow=none;endFill=0;" edge="1" source="nw3spOytnLbYJBaP-aCj-48" target="nw3spOytnLbYJBaP-aCj-50" parent="1">
          <mxGeometry relative="1" as="geometry" />
        </mxCell>
        <mxCell id="nw3spOytnLbYJBaP-aCj-48" value="&lt;font style=&quot;font-size: 18px&quot;&gt;e&lt;/font&gt;" style="ellipse;whiteSpace=wrap;html=1;aspect=fixed;" vertex="1" parent="1">
          <mxGeometry x="276" y="740" width="60" height="60" as="geometry" />
        </mxCell>
        <mxCell id="nw3spOytnLbYJBaP-aCj-49" value="&lt;font style=&quot;font-size: 18px&quot;&gt;h&lt;/font&gt;" style="ellipse;whiteSpace=wrap;html=1;aspect=fixed;fillColor=#FFFFFF;" vertex="1" parent="1">
          <mxGeometry x="226" y="850" width="60" height="60" as="geometry" />
        </mxCell>
        <mxCell id="nw3spOytnLbYJBaP-aCj-50" value="&lt;font style=&quot;font-size: 18px&quot;&gt;i&lt;/font&gt;" style="ellipse;whiteSpace=wrap;html=1;aspect=fixed;fillColor=#CDA2BE;" vertex="1" parent="1">
          <mxGeometry x="346" y="850" width="60" height="60" as="geometry" />
        </mxCell>
        <mxCell id="nw3spOytnLbYJBaP-aCj-51" style="edgeStyle=none;rounded=0;orthogonalLoop=1;jettySize=auto;html=1;entryX=0.5;entryY=0;entryDx=0;entryDy=0;endArrow=none;endFill=0;" edge="1" source="nw3spOytnLbYJBaP-aCj-53" target="nw3spOytnLbYJBaP-aCj-54" parent="1">
          <mxGeometry relative="1" as="geometry" />
        </mxCell>
        <mxCell id="nw3spOytnLbYJBaP-aCj-52" style="edgeStyle=none;rounded=0;orthogonalLoop=1;jettySize=auto;html=1;entryX=0.5;entryY=0;entryDx=0;entryDy=0;endArrow=none;endFill=0;" edge="1" source="nw3spOytnLbYJBaP-aCj-53" target="nw3spOytnLbYJBaP-aCj-55" parent="1">
          <mxGeometry relative="1" as="geometry" />
        </mxCell>
        <mxCell id="nw3spOytnLbYJBaP-aCj-53" value="&lt;font style=&quot;font-size: 18px&quot;&gt;c&lt;/font&gt;" style="ellipse;whiteSpace=wrap;html=1;aspect=fixed;" vertex="1" parent="1">
          <mxGeometry x="390" y="640" width="60" height="60" as="geometry" />
        </mxCell>
        <mxCell id="nw3spOytnLbYJBaP-aCj-54" value="&lt;font style=&quot;font-size: 18px&quot;&gt;f&lt;/font&gt;" style="ellipse;whiteSpace=wrap;html=1;aspect=fixed;" vertex="1" parent="1">
          <mxGeometry x="346" y="740" width="60" height="60" as="geometry" />
        </mxCell>
        <mxCell id="nw3spOytnLbYJBaP-aCj-55" value="&lt;font style=&quot;font-size: 18px&quot;&gt;g&lt;/font&gt;" style="ellipse;whiteSpace=wrap;html=1;aspect=fixed;" vertex="1" parent="1">
          <mxGeometry x="450" y="740" width="60" height="60" as="geometry" />
        </mxCell>
        <mxCell id="nw3spOytnLbYJBaP-aCj-56" value="&lt;h1&gt;第二种情况：&lt;/h1&gt;&lt;div&gt;当前节点没有右子树，并且是它父节点的右节点，那么需要沿着指向父节点的指针一直向上遍历，直到找到一个是它父节点的左子节点的节点，找到的这个节点的父节点就是要找的下一个节点&lt;/div&gt;" style="text;html=1;strokeColor=none;fillColor=none;spacing=5;spacingTop=-20;whiteSpace=wrap;overflow=hidden;rounded=0;" vertex="1" parent="1">
          <mxGeometry x="14" y="490" width="196" height="150" as="geometry" />
        </mxCell>
      </root>
    </mxGraphModel>
  </diagram>
</mxfile>
